# xmcd
#
# Track frame offsets: 
#        150
#        15687
#        31459
#        49830
#        66001
#        80096
#        94471
#        109271
#        125370
#        146837
#        161342
#        189407
#        218435
#        234233
#        252900
#        284557
#        301413
#
# Disc length: 4398 seconds
#
# Revision: 0
# Processed by: cddbd v1.5.2PL0 Copyright (c) Steve Scherf et al.
# Submitted via: ExactAudioCopy v1.0b3
#
DISCID=f0112c11
DTITLE=Van McCoy and The Soul City Symphony - Disco Baby
DYEAR=1975
DGENRE=Disco
TTITLE0=Disco Baby
TTITLE1=Fire
TTITLE2=The Hustle
TTITLE3=Get Dancin'
TTITLE4=Doctor's Orders
TTITLE5=Turn This Mother Out
TTITLE6=Shakey Ground
TTITLE7=Spanish Boogie
TTITLE8=Pick Up The Pieces
TTITLE9=Hey Girl, Come And Get It
TTITLE10=Disco Baby (Disco Mix)
TTITLE11=The Hustle (Remix)
TTITLE12=The Hustle (Radio Version)
TTITLE13=The Hustle (Super Hustle Mix)
TTITLE14=Hey Girl, Come And Get It (Disco Mix)
TTITLE15=Never Can Say Goodbye
TTITLE16=Never Can Say Goodbye (Extended Version)
EXTD=
EXTT0=
EXTT1=
EXTT2=
EXTT3=
EXTT4=
EXTT5=
EXTT6=
EXTT7=
EXTT8=
EXTT9=
EXTT10=
EXTT11=
EXTT12=
EXTT13=
EXTT14=
EXTT15=
EXTT16=
PLAYORDER=
